<svg width="8" height="9" viewBox="0 0 8 9" fill="none" xmlns="http://www.w3.org/2000/svg">
<path d="M7.41749 2.12235V2.11686C7.41632 2.09732 7.41255 2.07793 7.40627 2.05941L7.40415 2.05337V2.05329C7.40094 2.04458 7.39717 2.03602 7.39285 2.02778L7.39215 2.02653H7.39222C7.38767 2.01797 7.38249 2.00973 7.37676 2.00188C7.37519 1.99961 7.37362 1.99765 7.37206 1.99545C7.36648 1.98799 7.36036 1.98093 7.35385 1.97434L7.35298 1.97332L5.4434 0.0642751C5.44309 0.0638827 5.44269 0.0635688 5.4423 0.0632549C5.43579 0.0568195 5.42888 0.0508549 5.42158 0.0453614C5.41923 0.0435564 5.41695 0.0419082 5.41452 0.0401818C5.4073 0.0349236 5.39984 0.0302149 5.392 0.0259769C5.39043 0.0251136 5.3887 0.0244073 5.38713 0.0236225H5.38721C5.37983 0.019934 5.37238 0.0166376 5.36468 0.0138124C5.36186 0.0127922 5.35896 0.0116935 5.35605 0.0107518L5.35597 0.0108303C5.3482 0.00808344 5.34028 0.00588607 5.33219 0.00415945L5.32544 0.00290377C5.31767 0.00156961 5.30991 0.000549286 5.30213 0H5.29201H5.28597H2.71071C2.41045 0.000313941 2.12265 0.119682 1.91029 0.331902C1.69801 0.544103 1.57847 0.831906 1.57808 1.13208V1.57692H1.13255C0.832207 1.57731 0.544344 1.69684 0.332043 1.9092C0.119682 2.12156 0.000301364 2.40951 0 2.70979V7.86713C0.000313921 8.16747 0.119682 8.45533 0.332043 8.66772C0.544324 8.88016 0.832207 8.99962 1.13255 9H4.70733C5.00767 8.99961 5.29553 8.88016 5.50791 8.66772C5.72019 8.45535 5.83965 8.16749 5.83996 7.86713V7.4223H6.28549C6.58583 7.42183 6.87369 7.30238 7.086 7.09001C7.29828 6.87765 7.41774 6.58971 7.41804 6.28943V2.13101C7.41804 2.12826 7.41773 2.12575 7.41757 2.12245L7.41749 2.12235ZM5.50918 0.757976L6.65922 1.90864H6.19705C6.01458 1.90825 5.83973 1.83558 5.71079 1.70655C5.58184 1.57752 5.50934 1.40259 5.50918 1.22013V0.757976ZM5.39554 7.86716C5.3953 8.04962 5.32279 8.22463 5.19376 8.35366C5.06474 8.48276 4.88981 8.55535 4.70726 8.55559H1.13248C0.949936 8.55536 0.775082 8.48268 0.646058 8.35366C0.517036 8.22456 0.444526 8.04962 0.444365 7.86716V2.70981C0.444522 2.52734 0.517038 2.35241 0.646058 2.22339C0.775078 2.09437 0.950014 2.02178 1.13248 2.02154H3.48613V2.79787V2.79779C3.48645 3.09821 3.60582 3.38623 3.81818 3.59876C4.03062 3.8112 4.31864 3.93066 4.61898 3.93104H5.39532V7.86706L5.39554 7.86716ZM5.08162 3.48713H4.61906C4.4366 3.48689 4.26158 3.4143 4.13248 3.2852C4.00346 3.15617 3.93087 2.98116 3.93063 2.79861V2.3359L5.08162 3.48713ZM6.28551 6.97833L5.83989 6.97825V3.70886V3.70132V3.69387V3.69394C5.83863 3.67472 5.83487 3.6558 5.82867 3.63767C5.82796 3.63555 5.82718 3.63344 5.82639 3.63124C5.82317 3.62237 5.81941 3.61374 5.81517 3.60534V3.60455C5.81054 3.59608 5.80544 3.58784 5.79979 3.57991L5.79555 3.57418H5.79547C5.78951 3.56633 5.78299 3.5588 5.77616 3.55166L3.8665 1.64278H3.86595C3.85889 1.63579 3.85143 1.62943 3.84343 1.62363L3.83715 1.619C3.82946 1.61343 3.82145 1.60832 3.81321 1.60385L3.81054 1.60259C3.80293 1.59867 3.79492 1.5953 3.78692 1.59216L3.77939 1.58957H3.77931C3.77036 1.58635 3.76126 1.58384 3.752 1.58195C3.74258 1.58023 3.73316 1.57913 3.72358 1.5785H3.7166H3.70883H2.02244V1.13218C2.02259 0.949636 2.09519 0.774702 2.22421 0.645598C2.35323 0.516576 2.52817 0.443905 2.71071 0.443744H5.06417V1.22008C5.0644 1.52042 5.18385 1.80844 5.39621 2.02088C5.60857 2.23333 5.89659 2.35279 6.19701 2.35309H6.97335L6.97327 6.28951C6.97311 6.47189 6.9006 6.64682 6.77166 6.77585C6.64271 6.90487 6.46786 6.97746 6.2854 6.97778L6.28551 6.97833ZM4.89499 7.48241C4.89499 7.54135 4.87153 7.59786 4.82985 7.63953C4.78818 7.6812 4.73167 7.70467 4.67274 7.70467H1.17008C1.04742 7.70467 0.947895 7.60516 0.947895 7.48242C0.947895 7.35968 1.04741 7.26024 1.17008 7.26024H4.67274C4.73167 7.26024 4.78818 7.28363 4.82985 7.3253C4.87153 7.36697 4.89499 7.42348 4.89499 7.48241ZM4.89499 6.10564C4.89491 6.22839 4.79548 6.32783 4.67275 6.32789H1.17009C1.04743 6.32789 0.947905 6.22838 0.947905 6.10564C0.947905 5.98291 1.04742 5.88346 1.17009 5.88346H4.67275C4.73168 5.88346 4.78819 5.90685 4.82986 5.94852C4.87154 5.99019 4.89499 6.0467 4.89499 6.10564ZM0.947925 4.72777C0.948003 4.6051 1.04744 4.50558 1.17011 4.50558H3.10009C3.15997 4.50417 3.21773 4.52701 3.26058 4.56883C3.30335 4.61066 3.32744 4.66795 3.32744 4.72784C3.32744 4.78764 3.30335 4.84493 3.26058 4.88676C3.21773 4.92859 3.15997 4.95143 3.10009 4.95009H1.17011C1.04737 4.95001 0.947925 4.8505 0.947925 4.72777Z" fill="white"/>
</svg>
