<svg width="24" height="24" viewBox="0 0 24 24" fill="none" xmlns="http://www.w3.org/2000/svg">
<path d="M12.2149 23.557C18.6711 23.557 23.9049 18.3232 23.9049 11.867C23.9049 5.41079 18.6711 0.177002 12.2149 0.177002C5.75869 0.177002 0.524902 5.41079 0.524902 11.867C0.524902 18.3232 5.75869 23.557 12.2149 23.557Z" fill="#4D4D4D"/>
<path d="M12.2138 17.9899C15.5955 17.9899 18.3368 15.2485 18.3368 11.8669C18.3368 8.48526 15.5955 5.7439 12.2138 5.7439C8.83218 5.7439 6.09082 8.48526 6.09082 11.8669C6.09082 15.2485 8.83218 17.9899 12.2138 17.9899Z" fill="url(#paint0_linear_185_98)"/>
<path d="M15.1999 13.8179V13.2449C15.2001 13.2297 15.1972 13.2147 15.1915 13.2007C15.1858 13.1867 15.1773 13.174 15.1666 13.1633C15.1559 13.1526 15.1431 13.1441 15.1291 13.1384C15.1151 13.1326 15.1001 13.1297 15.0849 13.1299H14.397C14.3819 13.1299 14.367 13.1329 14.353 13.1386C14.3391 13.1444 14.3263 13.1529 14.3157 13.1636C14.305 13.1742 14.2965 13.1869 14.2908 13.2009C14.285 13.2148 14.282 13.2298 14.282 13.2449V13.3589C14.282 13.4198 14.2577 13.4781 14.2147 13.5212C14.1717 13.5642 14.1133 13.5884 14.0525 13.5884C13.9916 13.5884 13.9333 13.5642 13.8902 13.5212C13.8472 13.4781 13.823 13.4198 13.823 13.3589V13.2449C13.823 13.0927 13.8834 12.9466 13.9911 12.839C14.0987 12.7314 14.2447 12.6709 14.397 12.6709H15.0849C15.1604 12.6707 15.2351 12.6855 15.3048 12.7143C15.3745 12.7431 15.4379 12.7854 15.4912 12.8387C15.5445 12.892 15.5868 12.9554 15.6156 13.0251C15.6444 13.0948 15.6592 13.1695 15.659 13.2449V13.8179C15.72 13.8179 15.7785 13.8421 15.8216 13.8853C15.8648 13.9284 15.889 13.9869 15.889 14.0479V15.4259C15.8888 15.4867 15.8644 15.545 15.8213 15.5879C15.7782 15.6308 15.7199 15.6549 15.659 15.6549H13.823C13.7622 15.6549 13.7039 15.6308 13.6607 15.5879C13.6176 15.545 13.5933 15.4867 13.593 15.4259V14.0479C13.593 13.9869 13.6172 13.9284 13.6604 13.8853C13.7035 13.8421 13.762 13.8179 13.823 13.8179H15.1999ZM14.052 14.2779V15.1959H15.43V14.2779H14.052ZM12.1009 14.7369C12.1592 14.7407 12.2139 14.7666 12.2538 14.8092C12.2937 14.8518 12.3158 14.908 12.3158 14.9664C12.3158 15.0248 12.2937 15.0809 12.2538 15.1236C12.2139 15.1662 12.1592 15.192 12.1009 15.1959C11.3969 15.1961 10.7087 14.9875 10.1233 14.5965C9.53784 14.2055 9.08161 13.6497 8.81211 12.9993C8.54262 12.3489 8.47206 11.6333 8.60936 10.9428C8.74665 10.2523 9.08556 9.61808 9.58335 9.12028C10.0812 8.62249 10.7154 8.28351 11.4059 8.14622C12.0963 8.00893 12.812 8.07948 13.4624 8.34898C14.1127 8.61848 14.6686 9.0748 15.0596 9.66023C15.4505 10.2457 15.6592 10.9339 15.659 11.6379C15.659 11.6987 15.6348 11.7571 15.5918 11.8002C15.5487 11.8432 15.4903 11.8674 15.4294 11.8674C15.3686 11.8674 15.3102 11.8432 15.2672 11.8002C15.2242 11.7571 15.1999 11.6987 15.1999 11.6379C15.1999 11.0248 15.0182 10.4254 14.6776 9.91562C14.337 9.40582 13.8528 9.00849 13.2864 8.77386C12.7199 8.53923 12.0966 8.47784 11.4952 8.59745C10.8939 8.71707 10.3415 9.0123 9.90794 9.44584C9.4744 9.87939 9.17917 10.4318 9.05955 11.0331C8.93994 11.6344 9.00131 12.2577 9.23594 12.8242C9.47057 13.3907 9.86787 13.8748 10.3777 14.2154C10.8875 14.5561 11.4868 14.7379 12.1 14.7379L12.1009 14.7369ZM13.363 11.5229C13.3944 11.5208 13.4259 11.5252 13.4555 11.5358C13.4852 11.5464 13.5124 11.563 13.5354 11.5845C13.5584 11.606 13.5766 11.632 13.5891 11.6609C13.6016 11.6898 13.6081 11.7209 13.6081 11.7524C13.6081 11.7839 13.6016 11.815 13.5891 11.8439C13.5766 11.8728 13.5584 11.8988 13.5354 11.9203C13.5124 11.9418 13.4852 11.9584 13.4555 11.969C13.4259 11.9796 13.3944 11.984 13.363 11.9819H11.9859C11.9249 11.9819 11.8665 11.9576 11.8233 11.9145C11.7802 11.8714 11.756 11.8129 11.756 11.7519V9.68588C11.756 9.62488 11.7802 9.56638 11.8233 9.52325C11.8665 9.48012 11.9249 9.45588 11.9859 9.45588C12.0469 9.45588 12.1055 9.48012 12.1487 9.52325C12.1918 9.56638 12.2159 9.62488 12.2159 9.68588V11.5229H13.363Z" fill="#4C4C4D"/>
<defs>
<linearGradient id="paint0_linear_185_98" x1="5.2336" y1="17.3409" x2="29.0276" y2="-1.32205" gradientUnits="userSpaceOnUse">
<stop stop-color="#FBD407"/>
<stop offset="0.78" stop-color="#FB2032"/>
<stop offset="1" stop-color="#FB2032"/>
</linearGradient>
</defs>
</svg>
