<svg width="24" height="24" viewBox="0 0 24 24" fill="none" xmlns="http://www.w3.org/2000/svg">
<path d="M12.2501 23.3971C18.7063 23.3971 23.9401 18.1633 23.9401 11.7071C23.9401 5.25088 18.7063 0.0170898 12.2501 0.0170898C5.79385 0.0170898 0.560059 5.25088 0.560059 11.7071C0.560059 18.1633 5.79385 23.3971 12.2501 23.3971Z" fill="#4D4D4D"/>
<path d="M12.25 17.829C15.6316 17.829 18.373 15.0876 18.373 11.706C18.373 8.32437 15.6316 5.58301 12.25 5.58301C8.86831 5.58301 6.12695 8.32437 6.12695 11.706C6.12695 15.0876 8.86831 17.829 12.25 17.829Z" fill="url(#paint0_linear_185_113)"/>
<path d="M8.87598 14.8332C8.87598 14.9548 8.92421 15.0713 9.01007 15.1574C9.09593 15.2434 9.21242 15.2919 9.33398 15.2922H14.675C14.7966 15.2919 14.9132 15.2435 14.9993 15.1575C15.0853 15.0714 15.1337 14.9548 15.134 14.8332V13.6192H15.167C15.2886 13.6189 15.405 13.5705 15.4909 13.4844C15.5768 13.3984 15.625 13.2817 15.625 13.1602V11.3862C15.6247 11.2648 15.5764 11.1485 15.4905 11.0626C15.4047 10.9768 15.2884 10.9285 15.167 10.9282H15.134V9.92819C15.1337 9.80654 15.0853 9.68993 14.9993 9.60391C14.9132 9.51789 14.7966 9.46946 14.675 9.46919H13.675V8.22719C13.675 8.21406 13.6724 8.20105 13.6674 8.18892C13.6623 8.17679 13.655 8.16576 13.6457 8.15648C13.6364 8.14719 13.6254 8.13982 13.6133 8.1348C13.6011 8.12977 13.5881 8.1272 13.575 8.1272H10.433C10.4199 8.1272 10.4068 8.12977 10.3947 8.1348C10.3826 8.13982 10.3716 8.14719 10.3623 8.15648C10.353 8.16576 10.3457 8.17679 10.3406 8.18892C10.3356 8.20105 10.333 8.21406 10.333 8.22719V9.46919H9.33301C9.21145 9.46946 9.09496 9.51792 9.00909 9.60397C8.92323 9.69002 8.875 9.80663 8.875 9.92819L8.87598 14.8332ZM15.134 11.1332H15.167C15.234 11.1335 15.2982 11.1602 15.3456 11.2076C15.393 11.255 15.4197 11.3192 15.42 11.3862V11.7102C15.42 11.7773 15.3933 11.8416 15.3459 11.8891C15.2984 11.9365 15.2341 11.9632 15.167 11.9632H15.134V11.1332ZM15.167 12.1682C15.257 12.1682 15.3449 12.1418 15.42 12.0922V13.1572C15.42 13.2244 15.3934 13.2888 15.3459 13.3364C15.2985 13.384 15.2342 13.4109 15.167 13.4112H12.946V12.1652L15.167 12.1682ZM13.678 9.66818H14.678C14.7126 9.66601 14.7473 9.67095 14.78 9.68271C14.8126 9.69446 14.8425 9.71279 14.8678 9.73654C14.8931 9.76029 14.9133 9.78897 14.9271 9.82082C14.9408 9.85266 14.9479 9.88699 14.9479 9.92169C14.9479 9.95639 14.9408 9.99072 14.9271 10.0226C14.9133 10.0544 14.8931 10.0831 14.8678 10.1068C14.8425 10.1306 14.8126 10.1489 14.78 10.1607C14.7473 10.1724 14.7126 10.1774 14.678 10.1752H13.678V9.66818ZM10.536 8.3232H13.473V10.1752H13.153V9.1162C13.153 9.08967 13.1425 9.06424 13.1237 9.04549C13.105 9.02673 13.0795 9.01619 13.053 9.01619C12.9838 9.01619 12.9174 8.98869 12.8685 8.93974C12.8195 8.8908 12.792 8.82441 12.792 8.75519C12.792 8.72867 12.7814 8.70323 12.7627 8.68448C12.7439 8.66573 12.7185 8.6552 12.692 8.6552H11.327C11.3005 8.6552 11.275 8.66573 11.2563 8.68448C11.2375 8.70323 11.227 8.72867 11.227 8.75519C11.227 8.82441 11.1995 8.8908 11.1506 8.93974C11.1016 8.98869 11.0352 9.01619 10.966 9.01619C10.9395 9.01619 10.914 9.02673 10.8953 9.04549C10.8765 9.06424 10.866 9.08967 10.866 9.1162V10.1752H10.546L10.536 8.3232ZM12.948 9.20718V10.1752H11.061V9.20718C11.1469 9.18779 11.2257 9.14443 11.288 9.08212C11.3503 9.01982 11.3936 8.94114 11.413 8.85519H12.6C12.6194 8.94114 12.6627 9.01982 12.725 9.08212C12.7873 9.14443 12.8661 9.18779 12.952 9.20718H12.948ZM9.33398 9.66818H10.334V10.1752H9.33398C9.2695 10.1711 9.20902 10.1427 9.16479 10.0956C9.12057 10.0485 9.09595 9.9863 9.09595 9.92169C9.09595 9.85708 9.12057 9.7949 9.16479 9.7478C9.20902 9.70071 9.2695 9.67223 9.33398 9.66818ZM9.08099 10.3032C9.15576 10.3535 9.24386 10.3803 9.33398 10.3802H14.675C14.7654 10.3805 14.8539 10.3536 14.929 10.3032V11.9602H12.844C12.8309 11.9602 12.8179 11.9628 12.8057 11.9678C12.7936 11.9728 12.7826 11.9802 12.7733 11.9895C12.764 11.9988 12.7566 12.0098 12.7516 12.0219C12.7466 12.0341 12.744 12.0471 12.744 12.0602V13.5102C12.744 13.5233 12.7466 13.5363 12.7516 13.5485C12.7566 13.5606 12.764 13.5716 12.7733 13.5809C12.7826 13.5902 12.7936 13.5976 12.8057 13.6026C12.8179 13.6076 12.8309 13.6102 12.844 13.6102H14.929V14.8252C14.9288 14.8924 14.9019 14.9567 14.8542 15.0042C14.8066 15.0516 14.7422 15.0782 14.675 15.0782H9.33398C9.26697 15.0779 9.20279 15.0512 9.1554 15.0038C9.10801 14.9564 9.08126 14.8922 9.08099 14.8252V10.3032Z" fill="#4C4C4D"/>
<defs>
<linearGradient id="paint0_linear_185_113" x1="5.26973" y1="17.18" x2="29.0637" y2="-1.48293" gradientUnits="userSpaceOnUse">
<stop stop-color="#FBD407"/>
<stop offset="0.78" stop-color="#FB2032"/>
<stop offset="1" stop-color="#FB2032"/>
</linearGradient>
</defs>
</svg>
