<svg width="32" height="25" viewBox="0 0 32 25" fill="none" xmlns="http://www.w3.org/2000/svg">
<path d="M30.3516 10.793H25.9606C23.9041 10.793 22.231 12.4661 22.231 14.5226C22.231 16.5791 23.9041 18.2522 25.9606 18.2522H30.3516C30.8203 18.2522 31.2014 17.8711 31.2014 17.4024V11.6418C31.2014 11.1741 30.8203 10.793 30.3516 10.793ZM25.7722 15.666C25.1417 15.666 24.6276 15.1531 24.6276 14.5226C24.6276 13.8922 25.1405 13.3792 25.7722 13.3792C26.4038 13.3792 26.9156 13.8922 26.9156 14.5226C26.9156 15.1531 26.4026 15.666 25.7722 15.666Z" fill="#565555"/>
<path d="M25.9607 8.07177H29.2749L29.2746 4.83529C29.2746 2.61484 27.4687 0.808838 25.2492 0.808838H4.92254C2.70328 0.808838 0.897095 2.61034 0.897095 4.8244V20.2182C0.897095 22.432 2.70303 24.2338 4.92254 24.2338H25.2701C27.4785 24.2338 29.2745 22.4323 29.2745 20.2182V16.9728H25.9604C23.5061 16.9728 21.5095 14.9761 21.5095 12.5219C21.5092 10.0675 23.5059 8.07183 25.9604 8.07183L25.9607 8.07177ZM13.1198 20.1713C13.1198 20.3785 12.9514 20.5457 12.7454 20.5457H5.18997C4.98271 20.5457 4.81428 20.3785 4.81428 20.1713V18.0307C4.81428 17.8234 4.98271 17.6562 5.18997 17.6562H12.7454C12.9526 17.6562 13.1198 17.8234 13.1198 18.0307V20.1713Z" fill="#565555"/>
</svg>
