<svg width="20" height="20" viewBox="0 0 20 20" fill="none" xmlns="http://www.w3.org/2000/svg">
<path d="M10 0C8.02219 0 6.08883 0.586489 4.44434 1.6853C2.79985 2.78412 1.51811 4.34596 0.761235 6.17322C0.00435829 8.00048 -0.193709 10.0111 0.192143 11.9509C0.577995 13.8907 1.53043 15.6726 2.92896 17.0711C4.32748 18.4696 6.10939 19.422 8.0492 19.8079C9.98901 20.1937 11.9996 19.9957 13.8269 19.2388C15.6542 18.482 17.2159 17.2002 18.3147 15.5557C19.4135 13.9112 20 11.9778 20 10C20 7.34784 18.9465 4.80432 17.0712 2.92896C15.1958 1.05359 12.6522 0 10 0ZM14.769 6.50604C14.74 6.90604 14.5081 8.32605 14.2771 9.86005C13.9301 12.028 13.5541 14.398 13.5541 14.398C13.5541 14.398 13.4971 15.062 13.0061 15.179C12.4799 15.17 11.9715 14.9871 11.5601 14.659C11.4431 14.571 9.39202 13.271 8.64002 12.634C8.56366 12.5822 8.50164 12.5118 8.45972 12.4296C8.4178 12.3473 8.39738 12.2558 8.40027 12.1636C8.40316 12.0713 8.42933 11.9813 8.47632 11.9018C8.52331 11.8223 8.58961 11.756 8.66907 11.709C9.70907 10.756 10.9521 9.56903 11.7051 8.81903C12.0511 8.47203 12.398 7.662 10.952 8.646C8.90103 10.062 6.8761 11.3911 6.8761 11.3911C6.66789 11.4849 6.44282 11.5358 6.21448 11.5408C5.98614 11.5458 5.75911 11.5047 5.547 11.42C4.678 11.159 3.667 10.813 3.667 10.813C3.667 10.813 2.97309 10.38 4.15809 9.91302C4.15809 9.91302 9.15805 7.86104 10.894 7.13904C11.56 6.85004 13.8151 5.92505 13.8151 5.92505C13.8151 5.92505 14.855 5.52204 14.769 6.50604Z" fill="url(#paint0_linear_185_289)"/>
<defs>
<linearGradient id="paint0_linear_185_289" x1="-74.88" y1="21.42" x2="129.18" y2="-6.01996" gradientUnits="userSpaceOnUse">
<stop stop-color="#F9D207"/>
<stop offset="0.78" stop-color="#F92032"/>
<stop offset="1" stop-color="#F92032"/>
</linearGradient>
</defs>
</svg>
