<svg width="20" height="20" viewBox="0 0 20 20" fill="none" xmlns="http://www.w3.org/2000/svg">
<path d="M9.99991 0C8.0221 0 6.08874 0.586489 4.44425 1.6853C2.79976 2.78412 1.51802 4.34596 0.761144 6.17322C0.00426775 8.00048 -0.193678 10.0111 0.192174 11.9509C0.578027 13.8907 1.53034 15.6726 2.92887 17.0711C4.32739 18.4696 6.1093 19.422 8.04911 19.8079C9.98892 20.1937 11.9996 19.9957 13.8268 19.2388C15.6541 18.482 17.2158 17.2002 18.3146 15.5557C19.4134 13.9112 19.9999 11.9778 19.9999 10C19.9999 7.34784 18.9464 4.80432 17.0711 2.92896C15.1957 1.05359 12.6521 0 9.99991 0ZM8.73392 4.96899C9.40992 4.61599 9.97703 4.32805 9.99003 4.32605C10.0563 4.3486 10.1197 4.37877 10.179 4.41602C10.267 4.46402 10.729 4.71005 11.204 4.95905C12.186 5.47805 12.549 5.67203 12.57 5.69403C12.2227 5.90562 11.854 6.07994 11.47 6.21405L10.8 6.51404L10.391 6.30402L9.98099 6.09302L9.60697 6.28601C9.47072 6.36163 9.32977 6.42845 9.18497 6.48602C9.12197 6.48602 7.50297 5.66603 7.50297 5.63403C7.50397 5.62003 8.05692 5.31999 8.73392 4.96899ZM5.06302 6.86902L5.76298 6.50403C6.01232 6.36719 6.26944 6.24495 6.53299 6.138C6.57199 6.138 7.35303 6.52404 8.27103 6.99304C8.84077 7.2393 9.38503 7.5407 9.89603 7.89301C9.86803 7.91401 9.67698 8.00602 9.47098 8.09302C9.26498 8.18002 9.01099 8.29805 8.90799 8.34705L8.50797 8.53204L8.29398 8.62701L7.81302 8.36804C7.53036 8.21404 7.24767 8.06069 6.965 7.90802L6.59891 7.70801V9.39105L5.85099 9.724C5.43799 9.907 5.09297 10.057 5.08097 10.057C5.06897 10.057 5.05997 9.34004 5.05997 8.46204L5.06302 6.86902ZM6.32096 13.842L5.69193 13.521L5.06302 13.199L5.07194 12.26C5.07994 11.473 5.09195 11.315 5.13895 11.288C5.18595 11.261 5.52603 11.1051 6.77103 10.5421L7.99296 9.99005L10.415 8.89001C11.138 8.56301 12.0149 8.16905 12.3579 8.01105C12.5731 7.92302 12.7831 7.82281 12.987 7.711C12.7993 7.58582 12.6054 7.47039 12.4059 7.36505C12.2062 7.25929 12.012 7.14343 11.824 7.01801C11.824 7.00801 12.2169 6.81799 12.6969 6.60699C13.1769 6.39599 13.581 6.20703 13.597 6.20703C13.613 6.20703 13.913 6.353 14.263 6.534L14.902 6.862L14.893 7.81305L14.881 8.76202L14.4309 8.96802C14.1829 9.08302 13.4989 9.39302 12.9109 9.65802C12.2409 9.96202 11.5706 10.2647 10.8999 10.566C9.39994 11.244 8.70598 11.558 7.79398 11.966C7.32498 12.176 6.941 12.36 6.939 12.366C6.937 12.372 6.96792 12.401 7.00492 12.413C7.13034 12.4732 7.25259 12.54 7.37101 12.613C7.53501 12.708 7.75901 12.8351 7.87101 12.8911C7.94473 12.922 8.01238 12.9656 8.07096 13.02C8.07096 13.034 7.67891 13.22 7.19791 13.439L6.32096 13.842ZM11.8319 14.778C11.4029 14.986 10.815 15.278 10.522 15.419L9.99003 15.682L8.72794 15.045C7.64994 14.501 7.37198 14.335 7.53898 14.335C7.55698 14.335 7.89803 14.185 8.29703 14.004C8.69603 13.823 9.05896 13.659 9.09696 13.642C9.13496 13.625 9.28194 13.665 9.58194 13.815C10.0299 14.037 9.95602 14.033 10.334 13.87C10.459 13.815 10.585 13.761 10.71 13.708L11.0099 13.577L11.795 13.9771C12.228 14.1971 12.587 14.377 12.595 14.388C12.603 14.399 12.2559 14.574 11.8319 14.774V14.778ZM14.912 13.125C14.6703 13.2784 14.4199 13.4177 14.162 13.5421L13.439 13.916L11.7499 13.038C10.8299 12.562 10.0879 12.157 10.0879 12.138C10.0879 12.119 10.419 11.981 10.788 11.815C11.157 11.649 11.511 11.4941 11.571 11.4641C11.671 11.4141 11.6999 11.423 12.1349 11.655C12.7349 11.979 13.335 12.285 13.372 12.29C13.4032 12.0145 13.4156 11.7372 13.409 11.46L13.417 10.626L13.736 10.48L14.297 10.2271C14.43 10.1691 14.615 10.083 14.71 10.036C14.7746 10.0028 14.8414 9.97409 14.9099 9.95001C14.9429 9.94301 14.9469 13.074 14.9099 13.125H14.912Z" fill="url(#paint0_linear_185_287)"/>
<defs>
<linearGradient id="paint0_linear_185_287" x1="-12.8399" y1="13.08" x2="191.199" y2="-14.3797" gradientUnits="userSpaceOnUse">
<stop stop-color="#F9D207"/>
<stop offset="0.78" stop-color="#F92032"/>
<stop offset="1" stop-color="#F92032"/>
</linearGradient>
</defs>
</svg>
