<svg width="20" height="20" viewBox="0 0 20 20" fill="none" xmlns="http://www.w3.org/2000/svg">
<path d="M10 0C8.02219 0 6.08871 0.586489 4.44422 1.6853C2.79973 2.78412 1.51811 4.34596 0.761235 6.17322C0.00435829 8.00048 -0.193709 10.0111 0.192143 11.9509C0.577995 13.8907 1.53043 15.6726 2.92896 17.0711C4.32748 18.4696 6.10927 19.422 8.04908 19.8079C9.98889 20.1937 11.9995 19.9957 13.8268 19.2388C15.654 18.482 17.2159 17.2002 18.3147 15.5557C19.4135 13.9112 20 11.9778 20 10C19.9987 7.34824 18.9447 4.8055 17.0696 2.93042C15.1945 1.05534 12.6518 0.00132489 10 0ZM8.42896 12.27H9.08997V14.708C9.08919 14.8283 9.04112 14.9434 8.95618 15.0286C8.87124 15.1137 8.75625 15.162 8.63599 15.163H7.23096C7.1107 15.162 6.99572 15.1137 6.91077 15.0286C6.82583 14.9434 6.77776 14.8283 6.77698 14.708V12.274H4.37696C4.29305 12.2768 4.20981 12.2578 4.13538 12.219C4.06095 12.1801 3.99784 12.1227 3.95215 12.0523C3.90647 11.9819 3.87976 11.9008 3.87464 11.817C3.86952 11.7332 3.88621 11.6495 3.92298 11.574L7.47498 5.12805C7.52253 5.04379 7.59163 4.97365 7.67518 4.92487C7.75873 4.87608 7.85369 4.8504 7.95044 4.8504C8.04719 4.8504 8.14228 4.87608 8.22583 4.92487C8.30938 4.97365 8.37848 5.04379 8.42603 5.12805L9.91492 7.979L7.93091 11.579C7.89663 11.6566 7.88221 11.7415 7.88892 11.826C7.91063 11.9529 7.97701 12.0677 8.07605 12.1499C8.17509 12.2321 8.30029 12.2761 8.42896 12.274V12.27ZM15.619 12.27H13.2639V14.708C13.2631 14.8283 13.2152 14.9434 13.1303 15.0286C13.0453 15.1137 12.9302 15.162 12.8099 15.163H11.323C11.2024 15.1625 11.0868 15.1144 11.0015 15.0292C10.9161 14.944 10.8677 14.8286 10.8669 14.708V12.274H11.5289C11.6579 12.2754 11.7831 12.2302 11.8815 12.1468C11.9799 12.0634 12.045 11.9474 12.0649 11.82C12.0715 11.7356 12.0574 11.6508 12.0239 11.573L10.041 7.97302L11.57 5.12201C11.6175 5.03775 11.6866 4.96767 11.7701 4.91888C11.8537 4.8701 11.9487 4.84436 12.0454 4.84436C12.1422 4.84436 12.2373 4.8701 12.3208 4.91888C12.4044 4.96767 12.4734 5.03775 12.521 5.12201L16.073 11.568C16.1112 11.6438 16.129 11.7283 16.1245 11.813C16.1201 11.8978 16.0936 11.9799 16.0476 12.0513C16.0016 12.1226 15.9378 12.1807 15.8624 12.2198C15.7871 12.2589 15.7027 12.2776 15.6179 12.274L15.619 12.27Z" fill="url(#paint0_linear_185_288)"/>
<defs>
<linearGradient id="paint0_linear_185_288" x1="-40.48" y1="16.8" x2="163.56" y2="-10.66" gradientUnits="userSpaceOnUse">
<stop stop-color="#F9D207"/>
<stop offset="0.78" stop-color="#F92032"/>
<stop offset="1" stop-color="#F92032"/>
</linearGradient>
</defs>
</svg>
