<svg width="20" height="20" viewBox="0 0 20 20" fill="none" xmlns="http://www.w3.org/2000/svg">
<path d="M10 0C8.02222 0 6.08874 0.586489 4.44425 1.6853C2.79976 2.78412 1.51802 4.34596 0.761144 6.17322C0.00426775 8.00048 -0.193678 10.0111 0.192174 11.9509C0.578027 13.8907 1.53034 15.6726 2.92887 17.0711C4.32739 18.4696 6.1093 19.422 8.04911 19.8079C9.98892 20.1937 11.9996 19.9957 13.8268 19.2388C15.6541 18.482 17.2159 17.2002 18.3147 15.5557C19.4135 13.9112 20 11.9778 20 10C20 7.34784 18.9464 4.80432 17.0711 2.92896C15.1957 1.05359 12.6522 0 10 0ZM14.486 7.70001C14.492 7.80001 14.4941 7.9 14.4941 8C14.4953 9.18213 14.1782 10.3428 13.5761 11.3601C12.974 12.3774 12.1091 13.2138 11.0722 13.7815C10.0353 14.3492 8.86456 14.6271 7.68314 14.5862C6.50172 14.5453 5.35311 14.187 4.35795 13.549C5.58176 13.6901 6.81212 13.3458 7.78495 12.59C7.30174 12.5805 6.83362 12.4204 6.44584 12.132C6.05805 11.8435 5.77001 11.4411 5.62198 10.981C5.76597 11.0091 5.9123 11.0235 6.059 11.024C6.26477 11.0244 6.46965 10.9968 6.668 10.942C6.14415 10.836 5.67306 10.5521 5.33475 10.1383C4.99645 9.72454 4.81183 9.20646 4.81205 8.672V8.64301C5.13321 8.82171 5.49264 8.92052 5.86002 8.93103C5.36939 8.60422 5.02196 8.10245 4.88871 7.5282C4.75546 6.95395 4.84641 6.35048 5.14298 5.841C5.72425 6.55626 6.44949 7.14121 7.27164 7.5578C8.09379 7.97439 8.99442 8.21332 9.91495 8.25903C9.87473 8.08591 9.85435 7.90876 9.85404 7.73102C9.85436 7.26668 9.99423 6.81316 10.2555 6.42932C10.5168 6.04548 10.8875 5.74904 11.3194 5.57849C11.7513 5.40794 12.2243 5.37116 12.6774 5.4729C13.1305 5.57464 13.5425 5.81022 13.86 6.14905C14.3779 6.04551 14.8746 5.85511 15.329 5.586C15.1561 6.12167 14.7948 6.57648 14.312 6.86603C14.771 6.81275 15.2192 6.68967 15.641 6.50104C15.3306 6.96719 14.9394 7.3742 14.486 7.703V7.70001Z" fill="url(#paint0_linear_185_290)"/>
<defs>
<linearGradient id="paint0_linear_185_290" x1="-104.52" y1="25.4" x2="99.5402" y2="-2.04005" gradientUnits="userSpaceOnUse">
<stop stop-color="#F9D207"/>
<stop offset="0.78" stop-color="#F92032"/>
<stop offset="1" stop-color="#F92032"/>
</linearGradient>
</defs>
</svg>
