<svg width="20" height="20" viewBox="0 0 20 20" fill="none" xmlns="http://www.w3.org/2000/svg">
<circle cx="10" cy="10" r="10" fill="#FAB010"/>
<path d="M8.49691 6.18425C8.35386 6.16259 8.34704 6.15537 8.41516 6.14815C8.54459 6.12648 8.84432 6.15537 9.0555 6.20591C9.54597 6.32865 9.98875 6.64634 10.4588 7.2023L10.5814 7.35392L10.7585 7.32504C11.5147 7.19508 12.2912 7.29616 12.9384 7.61385C13.1155 7.7005 13.3948 7.87378 13.4288 7.9171C13.4425 7.93154 13.4629 8.02541 13.4765 8.11927C13.5242 8.45862 13.5038 8.71133 13.4016 8.90627C13.3471 9.01458 13.3471 9.04346 13.3812 9.13732C13.4084 9.20952 13.4902 9.26007 13.5651 9.26007C13.7286 9.26007 13.8989 8.9857 13.9806 8.60302L14.0147 8.4514L14.076 8.5236C14.4234 8.93516 14.6959 9.50555 14.7368 9.90989L14.7504 10.0182L14.6891 9.92433C14.5869 9.75826 14.4915 9.64996 14.3621 9.5561C14.1305 9.39003 13.8853 9.33949 13.2381 9.30339C12.6523 9.26729 12.3185 9.21674 11.9915 9.10122C11.4329 8.90627 11.1468 8.65357 10.486 7.72216C10.1931 7.3106 10.0092 7.08678 9.82526 6.89905C9.42335 6.4875 9.02144 6.27089 8.49691 6.18425Z" fill="#1D0C0C"/>
<path d="M13.5719 7.10086C13.5855 6.82649 13.6196 6.64599 13.6945 6.47992C13.7217 6.41494 13.749 6.35718 13.7558 6.35718C13.7626 6.35718 13.749 6.40772 13.7286 6.46548C13.6741 6.62433 13.6673 6.84815 13.7013 7.10086C13.749 7.42577 13.7694 7.46909 14.0964 7.82289C14.2463 7.98895 14.4234 8.19834 14.4915 8.28498L14.6073 8.44383L14.4915 8.3283C14.3485 8.1839 14.0215 7.90953 13.9465 7.87343C13.8989 7.84455 13.892 7.84455 13.858 7.88065C13.8307 7.90953 13.8239 7.95285 13.8239 8.16224C13.8171 8.48715 13.7762 8.68931 13.6741 8.8987C13.6196 9.007 13.6128 8.98534 13.6604 8.8626C13.6945 8.76874 13.7013 8.72541 13.7013 8.41494C13.7013 7.78678 13.6332 7.63516 13.2177 7.38245C13.1155 7.31747 12.9384 7.22361 12.8362 7.17306C12.7272 7.12252 12.6454 7.0792 12.6523 7.0792C12.6659 7.06476 13.0678 7.1875 13.2245 7.25971C13.4629 7.36079 13.5038 7.36801 13.531 7.36079C13.5514 7.33913 13.5651 7.28137 13.5719 7.10086Z" fill="#1D0C0C"/>
<path d="M8.77638 8.17688C8.49028 7.7581 8.30635 7.10828 8.34722 6.62453L8.36085 6.4729L8.42897 6.48734C8.55158 6.509 8.76276 6.59564 8.86494 6.66063C9.13742 6.83391 9.26004 7.07218 9.37585 7.66424C9.40991 7.83752 9.45759 8.03969 9.47803 8.10467C9.51209 8.21298 9.64152 8.46568 9.75051 8.62453C9.82544 8.74005 9.77776 8.79782 9.60746 8.78337C9.3486 8.75449 9.00118 8.50179 8.77638 8.17688Z" fill="#1D0C0C"/>
<path d="M13.2241 11.3175C11.8753 10.7399 11.3984 10.2417 11.3984 9.39692C11.3984 9.27418 11.4052 9.1731 11.4052 9.1731C11.4121 9.1731 11.4597 9.21642 11.5211 9.26696C11.7935 9.49801 12.1001 9.59909 12.9516 9.72905C13.4489 9.80848 13.735 9.86624 13.9938 9.9601C14.8181 10.2489 15.329 10.841 15.4516 11.6424C15.4857 11.8735 15.4652 12.3139 15.4107 12.5449C15.3631 12.7255 15.2268 13.0576 15.1928 13.0648C15.186 13.0648 15.1723 13.0287 15.1723 12.9709C15.1587 12.6677 15.0156 12.3789 14.7772 12.1551C14.4911 11.8951 14.1233 11.7002 13.2241 11.3175Z" fill="#1D0C0C"/>
<path d="M12.2708 11.5561C12.2571 11.4478 12.2231 11.3106 12.2026 11.2528L12.1686 11.1445L12.2299 11.224C12.3184 11.3323 12.3866 11.4622 12.4479 11.6427C12.4956 11.7799 12.4956 11.8232 12.4956 12.0471C12.4956 12.2637 12.4887 12.3142 12.4479 12.437C12.3798 12.6319 12.298 12.7691 12.1618 12.9207C11.9165 13.1879 11.5964 13.3323 11.14 13.3972C11.0582 13.4045 10.8266 13.4261 10.6222 13.4406C10.1113 13.4694 9.77073 13.5272 9.46418 13.6427C9.42331 13.6572 9.38244 13.6716 9.37563 13.6644C9.362 13.65 9.57318 13.52 9.74348 13.4333C9.9819 13.3106 10.2271 13.2456 10.7653 13.1445C11.031 13.1012 11.3034 13.0435 11.3716 13.0146C12.046 12.7907 12.3798 12.2348 12.2708 11.5561Z" fill="#1D0C0C"/>
<path d="M12.8907 12.7184C12.7136 12.3069 12.6727 11.917 12.7681 11.5488C12.7817 11.5127 12.7953 11.4766 12.809 11.4766C12.8226 11.4766 12.8635 11.4982 12.9043 11.5271C12.9861 11.5849 13.1564 11.6859 13.5923 11.9387C14.1441 12.2563 14.4575 12.5018 14.6755 12.7834C14.8662 13.0289 14.982 13.3105 15.0365 13.6571C15.0706 13.852 15.0501 14.3213 15.0024 14.5163C14.8526 15.13 14.512 15.621 14.0147 15.9026C13.9398 15.9459 13.8785 15.9748 13.8716 15.9748C13.8648 15.9748 13.8921 15.9026 13.933 15.8159C14.0964 15.4477 14.1169 15.0939 13.9943 14.6968C13.9193 14.4513 13.7626 14.1553 13.4493 13.6571C13.0746 13.0795 12.9861 12.9278 12.8907 12.7184Z" fill="#1D0C0C"/>
<path d="M7.81542 14.9278C8.31951 14.4802 8.93941 14.1625 9.51162 14.0614C9.75686 14.0181 10.1656 14.0325 10.3904 14.0975C10.7514 14.1986 11.0784 14.4152 11.2487 14.6823C11.4122 14.9423 11.4871 15.1661 11.5621 15.6643C11.5893 15.8592 11.6234 16.0614 11.6302 16.1047C11.6847 16.3646 11.7937 16.5668 11.9299 16.6751C12.1411 16.8412 12.5089 16.8484 12.87 16.704C12.9313 16.6823 12.9858 16.6607 12.9858 16.6679C12.9994 16.6823 12.8155 16.8123 12.6929 16.8773C12.5226 16.9711 12.3863 17 12.2024 17C11.8754 17 11.5961 16.8195 11.3713 16.4585C11.3236 16.3863 11.2283 16.1769 11.1465 15.982C10.9081 15.3971 10.7855 15.2238 10.5062 15.0289C10.261 14.8628 9.9476 14.8267 9.70917 14.9495C9.39582 15.1083 9.31407 15.5343 9.53206 15.7942C9.62062 15.9025 9.78411 15.9892 9.92035 16.0108C10.1724 16.0469 10.3904 15.8376 10.3904 15.5704C10.3904 15.3971 10.3291 15.296 10.1656 15.2166C9.9476 15.1155 9.70917 15.2311 9.71599 15.4549C9.71599 15.5488 9.75686 15.6065 9.84541 15.6498C9.89991 15.6787 9.89991 15.6787 9.85904 15.6715C9.66149 15.6282 9.6138 15.3682 9.77048 15.2022C9.96122 15 10.3631 15.0867 10.4994 15.3682C10.5539 15.4838 10.5607 15.7148 10.513 15.8592C10.3972 16.1769 10.0702 16.343 9.73642 16.2491C9.51162 16.1841 9.41625 16.1192 9.14377 15.8231C8.66693 15.3033 8.483 15.2022 7.80179 15.0939L7.67236 15.0722L7.81542 14.9278Z" fill="#1D0C0C"/>
<path fill-rule="evenodd" clip-rule="evenodd" d="M4.23191 3.31047C5.81913 5.3538 8.26466 8.5307 8.38728 8.70398C8.48946 8.84839 8.44859 8.98557 8.27829 9.08666C8.18292 9.14442 7.98537 9.20218 7.89 9.20218C7.781 9.20218 7.65157 9.14442 7.56302 9.05056C7.50171 8.98557 7.23604 8.57402 6.63658 7.58485C6.18017 6.82672 5.79188 6.19856 5.78507 6.19134C5.75782 6.1769 5.75782 6.1769 6.58889 7.75091C7.11342 8.74009 7.28372 9.09388 7.28372 9.1372C7.28372 9.23106 7.25647 9.2816 7.14748 9.41157C6.96355 9.62817 6.88181 9.87366 6.8205 10.3863C6.75238 10.9567 6.56845 11.361 6.04393 12.047C5.73738 12.4513 5.6897 12.5235 5.61476 12.6896C5.5194 12.8917 5.49215 13.0072 5.47852 13.2672C5.4649 13.5415 5.49215 13.7148 5.56708 13.9748C5.6352 14.2058 5.71013 14.3574 5.89406 14.6535C6.05074 14.9134 6.14611 15.1083 6.14611 15.1805C6.14611 15.2383 6.15973 15.2383 6.40496 15.1805C6.9908 15.0361 7.47446 14.7906 7.74013 14.4874C7.90362 14.2997 7.94449 14.1986 7.94449 13.9387C7.94449 13.7726 7.93768 13.7365 7.89681 13.6354C7.82869 13.4766 7.69926 13.3466 7.41996 13.1444C7.05211 12.8773 6.89543 12.6607 6.85456 12.3719C6.8205 12.1264 6.86137 11.9603 7.06574 11.5054C7.27691 11.0361 7.33141 10.8412 7.36547 10.3646C7.3859 10.0614 7.41996 9.93864 7.50171 9.84478C7.59027 9.7437 7.6652 9.7076 7.87637 9.67872C8.22379 9.62817 8.44859 9.53431 8.6257 9.35381C8.78238 9.20218 8.8505 9.05056 8.85731 8.82673L8.86412 8.66066L8.77557 8.55958C8.4554 8.16969 4.02074 3 4.0003 3C3.99349 3 4.10248 3.13718 4.23191 3.31047ZM6.32322 13.5776C6.39815 13.4405 6.35728 13.2672 6.23466 13.1805C6.11886 13.1011 5.94174 13.1372 5.94174 13.2455C5.94174 13.2744 5.95537 13.3033 5.99624 13.3177C6.05755 13.3538 6.06436 13.3899 6.01668 13.4693C5.96899 13.5488 5.96899 13.621 6.0303 13.6715C6.12567 13.7509 6.2551 13.7076 6.32322 13.5776Z" fill="#1D0C0C"/>
<path fill-rule="evenodd" clip-rule="evenodd" d="M9.08267 9.7801C8.91918 9.83064 8.7625 10.0184 8.71482 10.2061C8.68757 10.3216 8.70119 10.531 8.74888 10.596C8.82381 10.6971 8.89193 10.726 9.08267 10.726C9.45733 10.726 9.7775 10.5527 9.81156 10.3433C9.84562 10.17 9.70257 9.93173 9.50502 9.82342C9.40284 9.76566 9.19166 9.744 9.08267 9.7801ZM9.51864 10.1411C9.57314 10.0545 9.5527 9.96061 9.45052 9.89562C9.26659 9.77288 8.9873 9.87396 8.9873 10.0617C8.9873 10.1556 9.13035 10.2566 9.26659 10.2566C9.35515 10.2566 9.47777 10.1989 9.51864 10.1411Z" fill="#1D0C0C"/>
</svg>
