<svg width="7" height="10" viewBox="0 0 7 10" fill="none" xmlns="http://www.w3.org/2000/svg">
<path d="M0.875 10C0.634375 10 0.428458 9.91106 0.25725 9.73318C0.0857499 9.555 0 9.34091 0 9.09091V4.09091C0 3.84091 0.0857499 3.62682 0.25725 3.44864C0.428458 3.27076 0.634375 3.18182 0.875 3.18182H2.1875V4.09091H0.875V9.09091H6.125V4.09091H4.8125V3.18182H6.125C6.36562 3.18182 6.57169 3.27076 6.74319 3.44864C6.9144 3.62682 7 3.84091 7 4.09091V9.09091C7 9.34091 6.9144 9.555 6.74319 9.73318C6.57169 9.91106 6.36562 10 6.125 10H0.875ZM3.0625 6.81818V1.73864L2.3625 2.46591L1.75 1.81818L3.5 0L5.25 1.81818L4.6375 2.46591L3.9375 1.73864V6.81818H3.0625Z" fill="#B7B7B7"/>
</svg>
