<svg width="14" height="9" viewBox="0 0 14 9" fill="none" xmlns="http://www.w3.org/2000/svg">
<path d="M9.8 8.37931C9.60167 8.37931 9.43553 8.31972 9.3016 8.20055C9.1672 8.08179 9.1 7.93448 9.1 7.75862C9.1 7.58276 9.1672 7.43545 9.3016 7.31669C9.43553 7.19752 9.60167 7.13793 9.8 7.13793H11.2C11.3983 7.13793 11.5645 7.19752 11.6984 7.31669C11.8328 7.43545 11.9 7.58276 11.9 7.75862C11.9 7.93448 11.8328 8.08179 11.6984 8.20055C11.5645 8.31972 11.3983 8.37931 11.2 8.37931H9.8ZM9.8 3.41379C9.60167 3.41379 9.43553 3.35421 9.3016 3.23503C9.1672 3.11628 9.1 2.96897 9.1 2.7931C9.1 2.61724 9.1672 2.46972 9.3016 2.35055C9.43553 2.23179 9.60167 2.17241 9.8 2.17241H13.3C13.4983 2.17241 13.6645 2.23179 13.7984 2.35055C13.9328 2.46972 14 2.61724 14 2.7931C14 2.96897 13.9328 3.11628 13.7984 3.23503C13.6645 3.35421 13.4983 3.41379 13.3 3.41379H9.8ZM9.8 5.89655C9.60167 5.89655 9.43553 5.83697 9.3016 5.71779C9.1672 5.59903 9.1 5.45172 9.1 5.27586C9.1 5.1 9.1672 4.95248 9.3016 4.83331C9.43553 4.71455 9.60167 4.65517 9.8 4.65517H12.6C12.7983 4.65517 12.9645 4.71455 13.0984 4.83331C13.2328 4.95248 13.3 5.1 13.3 5.27586C13.3 5.45172 13.2328 5.59903 13.0984 5.71779C12.9645 5.83697 12.7983 5.89655 12.6 5.89655H9.8ZM2.1 9C1.715 9 1.3853 8.87855 1.1109 8.63565C0.836967 8.39234 0.7 8.1 0.7 7.75862V2.17241C0.501667 2.17241 0.335533 2.11303 0.2016 1.99428C0.0672001 1.8751 0 1.72759 0 1.55172C0 1.37586 0.0672001 1.22834 0.2016 1.10917C0.335533 0.990414 0.501667 0.931034 0.7 0.931034H2.8V0.62069C2.8 0.444828 2.86697 0.29731 3.0009 0.178138C3.1353 0.0593794 3.30167 0 3.5 0H4.9C5.09833 0 5.2647 0.0593794 5.3991 0.178138C5.53303 0.29731 5.6 0.444828 5.6 0.62069V0.931034H7.7C7.89833 0.931034 8.0647 0.990414 8.1991 1.10917C8.33303 1.22834 8.4 1.37586 8.4 1.55172C8.4 1.72759 8.33303 1.8751 8.1991 1.99428C8.0647 2.11303 7.89833 2.17241 7.7 2.17241V7.75862C7.7 8.1 7.56303 8.39234 7.2891 8.63565C7.0147 8.87855 6.685 9 6.3 9H2.1Z" fill="#B7B7B7"/>
</svg>
