<?xml version="1.0" standalone="no"?>
<!DOCTYPE svg PUBLIC "-//W3C//DTD SVG 20010904//EN"
 "http://www.w3.org/TR/2001/REC-SVG-20010904/DTD/svg10.dtd">
<svg version="1.0" xmlns="http://www.w3.org/2000/svg"
 width="512.000000pt" height="512.000000pt" viewBox="0 0 512.000000 512.000000"
 preserveAspectRatio="xMidYMid meet">
<metadata>
Created by potrace 1.14, written by Peter Selinger 2001-2017
</metadata>
<g transform="translate(0.000000,512.000000) scale(0.100000,-0.100000)"
fill="#000000" stroke="none">
<path d="M1975 4988 c28 -80 96 -306 106 -353 17 -78 17 -273 0 -350 -51 -230
-133 -374 -480 -840 -469 -630 -645 -958 -723 -1347 -32 -159 -32 -416 0 -565
78 -364 286 -746 544 -1000 245 -243 515 -387 850 -455 98 -20 142 -23 328
-22 183 0 231 4 320 23 692 147 1186 626 1332 1292 29 136 37 461 13 619 -66
458 -290 936 -659 1409 -104 134 -206 251 -425 486 -161 173 -180 198 -215
275 -212 471 -461 695 -918 824 -68 19 -79 20 -73 4z m384 -319 c289 -257 509
-626 577 -969 13 -67 15 -116 11 -235 -3 -82 -10 -168 -15 -190 -5 -22 -17
-84 -27 -138 -22 -119 -13 -167 37 -197 106 -64 191 -11 233 145 20 76 30 312
17 430 -5 50 -7 92 -5 94 2 3 34 -28 71 -69 333 -365 580 -756 708 -1124 13
-38 24 -70 24 -71 0 -1 -21 2 -47 6 -27 4 -87 8 -135 8 l-88 1 5 -27 c8 -48
25 -256 25 -310 l0 -53 -114 0 -114 0 -6 -27 c-2 -16 -8 -54 -11 -86 l-7 -58
-51 5 c-29 3 -133 8 -232 11 -99 3 -220 8 -269 12 -74 5 -88 4 -81 -8 4 -8
-18 11 -49 41 -31 30 -56 52 -56 48 0 -3 7 -22 15 -41 8 -20 15 -38 15 -39 0
-2 -129 2 -287 9 -159 6 -364 12 -458 12 -93 1 -227 4 -297 8 l-127 6 -3 46
-3 46 -127 -4 -128 -3 0 40 c0 22 -7 47 -15 55 -8 8 -49 22 -92 32 -43 9 -99
22 -125 29 -34 10 -48 11 -52 2 -15 -36 -2 35 20 110 34 121 65 196 139 345
107 215 213 377 499 764 429 582 529 776 543 1055 7 140 -12 249 -62 358 l-34
72 46 -32 c25 -18 84 -67 132 -109z m-376 -3315 c95 -59 190 -118 211 -132
l39 -24 -24 -14 c-43 -24 -150 -54 -193 -54 -96 0 -179 82 -203 202 -22 104
-24 128 -13 128 7 0 89 -48 183 -106z m1422 59 c-26 -183 -104 -283 -222 -283
-42 0 -150 30 -192 54 l-25 14 50 30 c27 17 121 76 209 131 88 55 166 100 173
100 10 1 12 -10 7 -46z"/>
</g>
</svg>
